<svg xmlns="http://www.w3.org/2000/svg" viewBox="0 0 920 400" font-family="-apple-system, Segoe UI, Roboto, sans-serif" font-size="13">
<rect width="920" height="400" fill="white"/>
<line x1="84" y1="350" x2="720" y2="350" stroke="#666" stroke-width="1"/>
<text x="76" y="354" text-anchor="end" fill="#555">0</text>
<line x1="84" y1="284.8" x2="720" y2="284.8" stroke="#eee" stroke-width="1"/>
<text x="76" y="288.8" text-anchor="end" fill="#555">200</text>
<line x1="84" y1="219.6" x2="720" y2="219.6" stroke="#eee" stroke-width="1"/>
<text x="76" y="223.6" text-anchor="end" fill="#555">400</text>
<line x1="84" y1="154.4" x2="720" y2="154.4" stroke="#eee" stroke-width="1"/>
<text x="76" y="158.4" text-anchor="end" fill="#555">600</text>
<line x1="84" y1="89.19999999999999" x2="720" y2="89.19999999999999" stroke="#eee" stroke-width="1"/>
<text x="76" y="93.19999999999999" text-anchor="end" fill="#555">800</text>
<line x1="84" y1="24" x2="720" y2="24" stroke="#eee" stroke-width="1"/>
<text x="76" y="28" text-anchor="end" fill="#555">1k</text>
<text x="22" y="187" text-anchor="middle" fill="#555" transform="rotate(-90 22 187)">ops / sec</text>
<rect x="96.0" y="41.4" width="202.0" height="308.6" fill="#3b82f6"><title>🇺🇸 en-US · serialize: 946.62 ops/sec</title></rect>
<rect x="300.0" y="150.5" width="202.0" height="199.5" fill="#10b981"><title>🇬🇧 en-GB · serialize: 612.00 ops/sec</title></rect>
<rect x="504.0" y="301.2" width="202.0" height="48.8" fill="#f59e0b"><title>🇵🇱 pl-PL · serialize: 149.74 ops/sec</title></rect>
<text x="402" y="376" text-anchor="middle" fill="#111" font-weight="600" font-family="ui-monospace, SFMono-Regular, Menlo, Consolas, monospace">serialize</text>
<rect x="744" y="24" width="14" height="14" rx="2" fill="#3b82f6"/>
<text x="766" y="35" fill="#222" font-weight="600">🇺🇸 en-US</text>
<text x="766" y="51" fill="#666" font-size="11">TWL06 · 178,691 words</text>
<rect x="744" y="68" width="14" height="14" rx="2" fill="#10b981"/>
<text x="766" y="79" fill="#222" font-weight="600">🇬🇧 en-GB</text>
<text x="766" y="95" fill="#666" font-size="11">SOWPODS · 267,752 words</text>
<rect x="744" y="112" width="14" height="14" rx="2" fill="#f59e0b"/>
<text x="766" y="123" fill="#222" font-weight="600">🇵🇱 pl-PL</text>
<text x="766" y="139" fill="#666" font-size="11">SJP.PL · 3,229,856 words</text>
</svg>